<svg width="26" height="25" viewBox="0 0 26 25" fill="none" xmlns="http://www.w3.org/2000/svg">
<path d="M3.80856 4.01569L4.16211 4.36925L4.51566 4.01569C6.6866 1.84475 9.68597 0.500031 13 0.500031C19.6282 0.500031 25 5.87188 25 12.5C25 19.1282 19.6282 24.5 13 24.5C10.4551 24.5 8.08872 23.7038 6.13823 22.3492C5.65378 22.0076 5.53805 21.3474 5.87477 20.8688C6.2146 20.3857 6.87582 20.2699 7.35777 20.6056C8.9576 21.7218 10.9025 22.375 13 22.375C18.4519 22.375 22.875 17.952 22.875 12.5C22.875 7.04811 18.4519 2.62503 13 2.62503C10.2742 2.62503 7.80474 3.73135 6.02047 5.51562L5.66692 5.86917L6.02047 6.22272L7.52438 7.72663C7.94687 8.14912 7.64708 8.87503 7.04785 8.87503H1.67188C1.2986 8.87503 1 8.57643 1 8.20316V2.82718C1 2.23506 1.72433 1.93147 2.1484 2.35554L3.80856 4.01569ZM16.9873 15.544L16.9892 15.5459C17.2469 15.8009 17.2502 16.2264 16.9854 16.4941C16.728 16.7542 16.3039 16.757 16.0391 16.4922L12.5235 12.9766C12.3988 12.8519 12.3281 12.6818 12.3281 12.5V7.42191C12.3281 7.04945 12.6254 6.75133 12.9976 6.75003C13.3697 6.75133 13.667 7.04945 13.667 7.42191V12.0166V12.2237L13.8134 12.3702L16.9873 15.544Z" fill="black" stroke="black"/>
</svg>
