<svg width="28" height="26" viewBox="0 0 28 26" fill="none" xmlns="http://www.w3.org/2000/svg">
<path d="M23.4196 23.301L23.4201 23.2963L21.2625 16.1215L21.679 15.8449C21.6789 15.8448 21.6788 15.8447 21.6788 15.8446C21.6336 15.7763 21.6357 15.7052 21.6635 15.6501C21.6901 15.5976 21.7352 15.5661 21.8017 15.5661H22.0732C24.8656 15.5661 26.8928 17.9404 26.8928 21.0072C26.8928 22.3938 25.8024 23.4947 24.4964 23.4947H23.5785C23.4892 23.4947 23.4057 23.4158 23.4196 23.301ZM20.6964 12.7804C19.0566 12.7804 17.625 11.2595 17.625 9.26255C17.625 8.13651 17.9478 7.25958 18.4708 6.67102C18.9885 6.08848 19.7401 5.7447 20.6964 5.7447C21.6527 5.7447 22.4043 6.08848 22.922 6.67102C23.445 7.25958 23.7678 8.13651 23.7678 9.26255C23.7678 11.2595 22.3362 12.7804 20.6964 12.7804ZM12.5214 14.6733C16.5175 14.6733 19.75 17.8448 19.75 21.7161V22.6036C19.75 24.068 18.5263 25.2804 16.9946 25.2804H3.86246C2.33072 25.2804 1.1071 24.068 1.1071 22.6036V21.7161C1.1071 17.8447 4.33783 14.6733 8.33567 14.6733H12.5214ZM14.8392 6.13755C14.8392 8.8586 12.8213 10.9947 10.4285 10.9947C8.03747 10.9947 6.01782 8.85848 6.01782 6.13755C6.01782 4.57863 6.46097 3.37084 7.20604 2.558C7.94648 1.75021 9.03231 1.28041 10.4285 1.28041C11.8257 1.28041 12.9115 1.75025 13.6516 2.55795C14.3965 3.37073 14.8392 4.5785 14.8392 6.13755Z" fill="black" stroke="black"/>
</svg>
