<svg width="25" height="25" viewBox="0 0 25 25" fill="none" xmlns="http://www.w3.org/2000/svg">
<rect x="-6.10352e-05" width="25" height="25" rx="5" fill="black"/>
<path d="M10.376 17.8L8.40197 14.398H6.93197V17.8H4.99997V8H8.91997C9.8253 8 10.5953 8.31733 11.23 8.952C11.8646 9.58667 12.182 10.352 12.182 11.248C12.182 11.8547 12.0093 12.4193 11.664 12.942C11.3186 13.4553 10.8613 13.8427 10.292 14.104L12.462 17.8H10.376ZM6.93197 9.806V12.704H8.91997C9.28397 12.704 9.59664 12.564 9.85797 12.284C10.1193 11.9947 10.25 11.6493 10.25 11.248C10.25 10.8467 10.1193 10.506 9.85797 10.226C9.59664 9.946 9.28397 9.806 8.91997 9.806H6.93197Z" fill="white"/>
<path d="M19.8716 9.848H15.9516V12.172H19.7596V14.02H15.9516V17.8H14.0196V8H19.8716V9.848Z" fill="white"/>
</svg>
