<svg width="49" height="48" viewBox="0 0 49 48" fill="none" xmlns="http://www.w3.org/2000/svg">
<g filter="url(#filter0_d_205_42)">
<path d="M33.6775 11.252C33.6775 10.7482 33.3728 10.2912 32.9041 10.0959C32.4353 9.90062 31.9001 10.01 31.5408 10.3654L29.8376 12.0723C27.9626 13.9471 25.4197 15.0016 22.7673 15.0016H22.4275H21.1775H17.4275C16.0486 15.0016 14.9275 16.1226 14.9275 17.5014V21.251C14.9275 22.6297 16.0486 23.7507 17.4275 23.7507V28.7501C17.4275 29.4415 17.9861 30 18.6775 30H21.1775C21.8689 30 22.4275 29.4415 22.4275 28.7501V23.7507H22.7673C25.4197 23.7507 27.9626 24.8053 29.8376 26.68L31.5408 28.383C31.9001 28.7423 32.4353 28.8478 32.9041 28.6525C33.3728 28.4572 33.6775 28.0041 33.6775 27.4964V21.7353C34.4041 21.3916 34.9275 20.4659 34.9275 19.3762C34.9275 18.2864 34.4041 17.3607 33.6775 17.017V11.252ZM31.1775 14.2478V19.3762V24.5045C28.8806 22.4149 25.8845 21.251 22.7673 21.251H22.4275V17.5014H22.7673C25.8845 17.5014 28.8806 16.3374 31.1775 14.2478Z" fill="black"/>
<circle cx="24.9275" cy="20" r="20" fill="white" fill-opacity="0.1"/>
</g>
<defs>
<filter id="filter0_d_205_42" x="0.92749" y="0" width="48" height="48" filterUnits="userSpaceOnUse" color-interpolation-filters="sRGB">
<feFlood flood-opacity="0" result="BackgroundImageFix"/>
<feColorMatrix in="SourceAlpha" type="matrix" values="0 0 0 0 0 0 0 0 0 0 0 0 0 0 0 0 0 0 127 0" result="hardAlpha"/>
<feOffset dy="4"/>
<feGaussianBlur stdDeviation="2"/>
<feComposite in2="hardAlpha" operator="out"/>
<feColorMatrix type="matrix" values="0 0 0 0 0 0 0 0 0 0 0 0 0 0 0 0 0 0 0.25 0"/>
<feBlend mode="normal" in2="BackgroundImageFix" result="effect1_dropShadow_205_42"/>
<feBlend mode="normal" in="SourceGraphic" in2="effect1_dropShadow_205_42" result="shape"/>
</filter>
</defs>
</svg>
