<svg width="18" height="16" viewBox="0 0 18 16" fill="none" xmlns="http://www.w3.org/2000/svg">
<path d="M6.71339 9.38889L6.71217 9.38737C6.46416 9.08006 6.09065 8.90004 5.69695 8.90004C5.30707 8.90004 4.92725 9.07725 4.67951 9.39014C4.67914 9.39062 4.67877 9.39109 4.67839 9.39156L2.5386 12.0663C2.53844 12.0665 2.53827 12.0667 2.5381 12.0669C2.22243 12.4593 2.16343 12.9971 2.38046 13.4475C2.59729 13.8974 3.053 14.1858 3.55409 14.1858H6.76838H7.83981H14.8041C15.2855 14.1858 15.733 13.9205 15.9577 13.4875C16.1779 13.0633 16.1535 12.548 15.8799 12.1481C15.8798 12.148 15.8797 12.1478 15.8796 12.1476L11.8623 6.25565C11.6188 5.89851 11.2166 5.68576 10.7862 5.68576C10.3601 5.68576 9.95164 5.89519 9.70888 6.25755L7.17811 9.96935L6.71339 9.38889ZM1.10767 2.97147C1.10767 2.06569 1.84475 1.32861 2.75052 1.32861H15.6077C16.5134 1.32861 17.2505 2.06569 17.2505 2.97147V13.6858C17.2505 14.5915 16.5134 15.3286 15.6077 15.3286H2.75052C1.84475 15.3286 1.10767 14.5915 1.10767 13.6858V2.97147ZM4.35767 6.68576C4.91651 6.68576 5.45248 6.46375 5.84764 6.06859C6.24281 5.67342 6.46481 5.13746 6.46481 4.57861C6.46481 4.01976 6.24281 3.4838 5.84764 3.08864C5.45248 2.69347 4.91651 2.47147 4.35767 2.47147C3.79882 2.47147 3.26286 2.69347 2.86769 3.08864C2.47253 3.4838 2.25052 4.01976 2.25052 4.57861C2.25052 5.13746 2.47253 5.67342 2.86769 6.06859C3.26286 6.46375 3.79882 6.68576 4.35767 6.68576Z" fill="white" fill-opacity="0.9" stroke="black"/>
</svg>
